# xmcd
#
# Track frame offsets:
#	150
#	26852
#	42112
#	56572
#
# Disc length: 1085 seconds
#
# Revision: 1
# Processed by: cddbd v1.5.1PL0 Copyright (c) Steve Scherf et al.
# Submitted via: CDex 1.50Beta5
#
DISCID=2e043b04
DTITLE=藤木直人 - Flower
DYEAR=1900
DGENRE=Pop
TTITLE0=Flower
TTITLE1=This Is My Life 〜Go Go Mix〜
TTITLE2=This Is My Life 〜Original Version〜
TTITLE3=This Is My Life 〜Live Version〜Recorded At NHK Hall On 26th.June 2003
EXTD=
EXTT0=
EXTT1=
EXTT2=
EXTT3=
PLAYORDER=
